<svg xmlns="http://www.w3.org/2000/svg" width="24" height="18" viewBox="0 0 24 18">
    <g fill="#E6D9C8" fill-rule="evenodd">
        <path d="M21.332 3.792H18.94V1.699h-1.196v2.093h-2.394v1.047h2.394v2.093h1.196V4.839h2.393zM12.962 10.06c-.472-.31-1.498-.946-1.498-1.372 0-.5.163-.746 1.022-1.334.88-.602 1.502-1.396 1.502-2.381 0-1.074-.5-2.047-1.443-2.52h1.335l1.137-1.045H9.931c-2.581 0-4.732 1.667-4.732 3.501 0 1.875 1.414 3.369 3.84 3.369.17 0 .333-.008.494-.018-.158.265-.27.56-.27.869 0 .52.327.818.731 1.162-.305 0-.6.007-.922.007-2.955 0-5.024 1.782-5.024 3.492 0 1.683 2.494 2.737 5.448 2.737 3.369 0 5.44-1.675 5.44-3.36 0-1.35-.332-2.028-1.974-3.108zm-2.93-2.547c-1.392-.037-2.714-1.15-2.954-2.745-.24-1.594.692-2.814 2.084-2.778 1.39.036 2.581 1.344 2.821 2.938.24 1.595-.56 2.62-1.951 2.585zm-.509 8.141c-2.02 0-3.48-1.129-3.48-2.486 0-1.329 1.712-2.476 3.733-2.456.472.004.911.071 1.31.185 1.097.673 1.983 1.094 2.205 1.862.041.155.064.315.064.479 0 1.356-.99 2.416-3.832 2.416z"/>
    </g>
</svg>
