<svg xmlns="http://www.w3.org/2000/svg" width="18" height="18" viewBox="0 0 18 18">
    <path fill="#E6D9C8" fill-rule="evenodd" d="M15.85 14.16c0 .929-.755 1.682-1.683 1.682H3.394a1.683 1.683 0 0 1-1.683-1.681V6.974h2.622a4.79 4.79 0 0 0-.354 1.803c0 2.647 2.154 4.799 4.801 4.799a4.805 4.805 0 0 0 4.802-4.8c0-.637-.129-1.244-.354-1.802h2.622v7.187zM6.275 6.975A3.086 3.086 0 0 1 8.78 5.686c1.032 0 1.944.51 2.506 1.288a3.07 3.07 0 0 1 .587 1.803 3.093 3.093 0 0 1-6.183 0c0-.674.219-1.295.585-1.803zm8.865-4.95l.388-.002v2.974l-2.967.012-.01-2.976 2.589-.008zM14.167 0H3.394A3.397 3.397 0 0 0 0 3.392v10.769a3.397 3.397 0 0 0 3.394 3.392h10.773a3.397 3.397 0 0 0 3.394-3.392V3.392A3.397 3.397 0 0 0 14.167 0z"/>
</svg>
