<svg xmlns="http://www.w3.org/2000/svg" width="16" height="18" viewBox="0 0 16 18">
    <path fill="#E6D9C8" fill-rule="evenodd" d="M8.436.003C2.828.003 0 3.52 0 6.453 0 8.23.769 9.81 2.417 10.398c.27.096.513.003.591-.259.055-.181.184-.638.241-.828.08-.26.049-.35-.17-.576C2.604 8.245 2.3 7.61 2.3 6.71c0-2.61 2.232-4.945 5.812-4.945 3.17 0 4.911 1.694 4.911 3.957 0 2.977-1.506 5.49-3.742 5.49-1.235 0-2.16-.894-1.863-1.99C7.773 7.916 8.46 6.504 8.46 5.56c0-.845-.518-1.55-1.592-1.55-1.262 0-2.276 1.142-2.276 2.672 0 .975.376 1.634.376 1.634L3.45 13.941c-.451 1.67-.068 3.717-.035 3.924.019.123.199.152.28.06.117-.134 1.62-1.757 2.131-3.38.145-.459.83-2.838.83-2.838.41.685 1.61 1.287 2.884 1.287 3.794 0 6.369-3.026 6.369-7.076 0-3.063-2.966-5.915-7.473-5.915z"/>
</svg>
