<svg xmlns="http://www.w3.org/2000/svg" width="18" height="15" viewBox="0 0 18 15">
    <path fill="#E6D9C8" fill-rule="evenodd" d="M17.561 1.69a7.206 7.206 0 0 1-2.07.567A3.603 3.603 0 0 0 17.077.264a7.182 7.182 0 0 1-2.29.873 3.603 3.603 0 0 0-6.138 3.287A10.23 10.23 0 0 1 1.223.659a3.594 3.594 0 0 0-.487 1.813c0 1.249.636 2.352 1.602 2.999a3.61 3.61 0 0 1-1.633-.45v.044A3.604 3.604 0 0 0 3.596 8.6c-.302.084-.62.126-.95.126a3.56 3.56 0 0 1-.677-.063 3.603 3.603 0 0 0 3.365 2.501A7.229 7.229 0 0 1 .86 12.706c-.291 0-.579-.016-.86-.05a10.202 10.202 0 0 0 5.522 1.619c6.629 0 10.251-5.49 10.251-10.253 0-.157-.003-.313-.01-.467a7.293 7.293 0 0 0 1.798-1.865"/>
</svg>
