<svg xmlns="http://www.w3.org/2000/svg" width="17" height="20" viewBox="0 0 17 20">
    <path fill="#5C6670" fill-rule="evenodd" d="M11.585 13.781s.708-.406 1.599.101c.891.508 3.906 2.76 3.154 4.017-.752 1.258-2.919 2.482-6.427.997-3.508-1.484-5.36-4.017-6.78-5.787-1.42-1.77-4.6-6.461-2.349-11.124 0 0 1.13-1.858 2.398-1.979 0 0 .604-.13 1.408.81.803.94 2.088 3.103 1.786 4.021 0 0-.664.826-1.005 1.367-.341.54-1.328 1.228-.813 2.788.516 1.56 2.822 5.489 5.203 5.472 0 0 1.009-.054 1.826-.683"/>
</svg>
